# xmcd
#
# Track frame offsets:
#	150
#	16623
#	35646
#	52344
#	76917
#	95790
#	114888
#	136386
#	156684
#	172107
#	185580
#	199803
#	214551
#	230574
#	246597
#	264570
#	284493
#
# Disc length: 4040 seconds
# Revision: 0
# Processed by: cddbd v1.5.2PL0 Copyright (c) Steve Scherf et al.
# Submitted via: dBpowerAMP V12.0
#
DISCID=030fc611
DTITLE=Bird Thongchai - CD1 - Ruam Pleng Thongchai Sook Jai
DYEAR=2016
DGENRE=Thai
TTITLE0=Sawasdee pee mai
TTITLE1=Too much so much very much
TTITLE2=Sook jai - Bird Thongchai feat. Paradox
TTITLE3=Arokaya porrama lapa
TTITLE4=Oh la nor my love
TTITLE5=Rao ma sing
TTITLE6=Fan ja - Bird - Jintara - Catareeya - Nat Myria
TTITLE7=Ma Tum Mai - Bird and Jintara Poonlarb
TTITLE8=Prik kee noo
TTITLE9=Koo kud 
TTITLE10=Pood len len
TTITLE11=Arb nam
TTITLE12=Takone wa rak wa rak
TTITLE13=Paratee
TTITLE14=Krung diew kong mai por
TTITLE15=Chard korn malee chard nee careron
TTITLE16=Yang Rang
EXTD=
EXTT0=
EXTT1=
EXTT2=
EXTT3=
EXTT4=
EXTT5=
EXTT6=
EXTT7=
EXTT8=
EXTT9=
EXTT10=
EXTT11=
EXTT12=
EXTT13=
EXTT14=
EXTT15=
EXTT16=
PLAYORDER=
